<?xml version="1.0" encoding="UTF-8" standalone="no"?>
<!-- Generator: Adobe Illustrator 16.0.0, SVG Export Plug-In . SVG Version: 6.00 Build 0)  -->

<svg
   xmlns:dc="http://purl.org/dc/elements/1.1/"
   xmlns:cc="http://creativecommons.org/ns#"
   xmlns:rdf="http://www.w3.org/1999/02/22-rdf-syntax-ns#"
   xmlns:svg="http://www.w3.org/2000/svg"
   xmlns="http://www.w3.org/2000/svg"
   xmlns:sodipodi="http://sodipodi.sourceforge.net/DTD/sodipodi-0.dtd"
   xmlns:inkscape="http://www.inkscape.org/namespaces/inkscape"
   version="1.1"
   id="Capa_1"
   x="0px"
   y="0px"
   width="25"
   height="25"
   viewBox="0 0 25 24.999999"
   enable-background="new 0 0 31.107 28.304"
   xml:space="preserve"
   sodipodi:docname="activity.svg"
   inkscape:version="0.92.4 (5da689c313, 2019-01-14)"><metadata
   id="metadata14"><rdf:RDF><cc:Work
       rdf:about=""><dc:format>image/svg+xml</dc:format><dc:type
         rdf:resource="http://purl.org/dc/dcmitype/StillImage" /><dc:title></dc:title></cc:Work></rdf:RDF></metadata><defs
   id="defs12" /><sodipodi:namedview
   pagecolor="#ffffff"
   bordercolor="#666666"
   borderopacity="1"
   objecttolerance="10"
   gridtolerance="10"
   guidetolerance="10"
   inkscape:pageopacity="0"
   inkscape:pageshadow="2"
   inkscape:window-width="1366"
   inkscape:window-height="705"
   id="namedview10"
   showgrid="false"
   inkscape:zoom="8.3380438"
   inkscape:cx="15.5535"
   inkscape:cy="14.152"
   inkscape:window-x="-8"
   inkscape:window-y="-8"
   inkscape:window-maximized="1"
   inkscape:current-layer="Capa_1" />
<g
   id="Yitz31.tif_1_"
   transform="matrix(0.77151538,0,0,0.77151538,0.5,1.501836)">
	<g
   id="g6">
		<path
   d="m 0,14.159 c 0.924,0 1.852,0 2.803,0 0.035,-0.484 0.043,-0.958 0.099,-1.423 0.674,-5.407 3.476,-9.346 8.44,-11.526 8.267,-3.625 17.44,1.267 19.394,9.765 1.811,7.897 -3.17,15.544 -11.18,17.056 -4.798,0.905 -9.019,-0.453 -12.557,-3.851 -0.5,-0.479 -0.583,-1.152 -0.258,-1.727 0.312,-0.545 0.939,-0.839 1.557,-0.658 0.27,0.079 0.544,0.254 0.75,0.452 1.648,1.576 3.581,2.589 5.82,3.025 5.968,1.155 11.889,-2.765 13.152,-8.705 C 29.292,10.58 25.674,4.723 19.749,3.194 13.391,1.55 6.899,5.768 5.821,12.255 c -0.099,0.616 -0.135,1.242 -0.206,1.904 0.979,0 1.887,0 2.865,0 C 7.049,16.064 5.663,17.917 4.244,19.805 4.154,19.688 4.07,19.591 3.995,19.492 2.73,17.804 1.467,16.116 0.198,14.431 0.144,14.355 0.068,14.296 0,14.226 0,14.205 0,14.181 0,14.159 Z"
   id="path2"
   inkscape:connector-curvature="0"
   style="clip-rule:evenodd;fill:#878787;fill-rule:evenodd" />
		<path
   d="m 16.965,14.159 c 1.388,0 2.734,0 4.077,0.002 0.155,0 0.313,0 0.46,0.033 0.729,0.164 1.177,0.8 1.102,1.55 -0.071,0.719 -0.677,1.242 -1.47,1.246 -1.336,0.008 -2.671,0.004 -4.007,0.004 -0.476,0 -0.951,0.002 -1.427,-0.002 -0.99,-0.009 -1.568,-0.578 -1.568,-1.563 -0.005,-2.75 -0.005,-5.498 0,-8.25 0,-0.807 0.519,-1.413 1.26,-1.494 0.722,-0.082 1.388,0.398 1.538,1.118 0.031,0.149 0.031,0.307 0.031,0.459 0.004,2.155 0.004,4.31 0.004,6.461 0,0.131 0,0.262 0,0.436 z"
   id="path4"
   inkscape:connector-curvature="0"
   style="clip-rule:evenodd;fill:#878787;fill-rule:evenodd" />
	</g>
</g>
</svg>