<?xml version="1.0" encoding="UTF-8" standalone="no"?>
<!-- Generator: Adobe Illustrator 16.0.0, SVG Export Plug-In . SVG Version: 6.00 Build 0)  -->

<svg
   xmlns:dc="http://purl.org/dc/elements/1.1/"
   xmlns:cc="http://creativecommons.org/ns#"
   xmlns:rdf="http://www.w3.org/1999/02/22-rdf-syntax-ns#"
   xmlns:svg="http://www.w3.org/2000/svg"
   xmlns="http://www.w3.org/2000/svg"
   xmlns:sodipodi="http://sodipodi.sourceforge.net/DTD/sodipodi-0.dtd"
   xmlns:inkscape="http://www.inkscape.org/namespaces/inkscape"
   version="1.1"
   id="Capa_1"
   x="0px"
   y="0px"
   width="25"
   height="25"
   viewBox="0 0 24.999999 25.000001"
   enable-background="new 0 0 11.895 13.341"
   xml:space="preserve"
   sodipodi:docname="calendar.svg"
   inkscape:version="0.92.4 (5da689c313, 2019-01-14)"><metadata
   id="metadata38"><rdf:RDF><cc:Work
       rdf:about=""><dc:format>image/svg+xml</dc:format><dc:type
         rdf:resource="http://purl.org/dc/dcmitype/StillImage" /><dc:title></dc:title></cc:Work></rdf:RDF></metadata><defs
   id="defs36" /><sodipodi:namedview
   pagecolor="#ffffff"
   bordercolor="#666666"
   borderopacity="1"
   objecttolerance="10"
   gridtolerance="10"
   guidetolerance="10"
   inkscape:pageopacity="0"
   inkscape:pageshadow="2"
   inkscape:window-width="1366"
   inkscape:window-height="705"
   id="namedview34"
   showgrid="false"
   inkscape:zoom="12.508598"
   inkscape:cx="2.109145"
   inkscape:cy="6.4863869"
   inkscape:window-x="-8"
   inkscape:window-y="-8"
   inkscape:window-maximized="1"
   inkscape:current-layer="Capa_1" />
<g
   id="_x36_TmocN.tif_30_"
   transform="matrix(1.8489116,0,0,1.8489116,1.6625464,0.1269495)">
	<g
   id="g30">
		<g
   id="g28">
			<path
   d="m 8.841,0 c 0.087,0 0.174,0 0.26,0 0.008,0.005 0.014,0.015 0.021,0.015 0.482,0.082 0.842,0.523 0.817,1.068 -0.006,0.115 -0.002,0.232 -0.002,0.361 0.12,0 0.224,0 0.327,0 0.245,0 0.485,0.029 0.709,0.138 0.619,0.304 0.922,0.804 0.922,1.491 -10e-4,2.879 0,5.758 0,8.637 0,0.044 0,0.086 -0.003,0.131 -0.027,0.546 -0.268,0.978 -0.733,1.26 -0.188,0.113 -0.415,0.162 -0.623,0.24 -3.06,0 -6.115,0 -9.174,0 C 1.215,13.296 1.057,13.269 0.92,13.201 0.302,12.9 0.001,12.399 0.001,11.71 0.003,9.048 0.002,6.388 0.002,3.726 0.002,3.472 -0.003,3.215 0.004,2.956 0.028,2.151 0.644,1.505 1.447,1.454 1.649,1.441 1.851,1.452 2.067,1.452 2.067,1.311 2.054,1.192 2.07,1.079 2.092,0.905 2.112,0.722 2.178,0.563 2.314,0.237 2.591,0.075 2.925,0 3.013,0 3.1,0 3.186,0 c 0.007,0.005 0.012,0.013 0.021,0.015 0.49,0.087 0.837,0.529 0.816,1.064 -0.005,0.116 0,0.233 0,0.354 0.341,0 0.667,0 1.007,0 0,-0.135 0,-0.259 0,-0.386 C 5.027,0.769 5.111,0.521 5.3,0.311 5.454,0.14 5.656,0.06 5.871,0 c 0.086,0 0.174,0 0.26,0 0.012,0.006 0.023,0.015 0.034,0.017 0.437,0.071 0.787,0.46 0.807,0.912 0.008,0.166 0,0.334 0,0.506 0.354,0 0.677,0 1.012,0 C 7.984,1.312 7.972,1.193 7.986,1.08 8.01,0.906 8.029,0.722 8.095,0.563 8.229,0.239 8.506,0.075 8.841,0 Z M 0.917,3.736 c 0,0.055 0,0.101 0,0.147 0,2.604 0,5.209 0,7.814 0,0.477 0.256,0.729 0.733,0.729 2.866,0 5.731,0 8.596,0 0.48,0 0.734,-0.252 0.734,-0.728 0,-2.604 0,-5.209 0,-7.813 0,-0.049 0,-0.094 0,-0.149 -3.358,0 -6.703,0 -10.063,0 z M 9.389,1.915 c 0,-0.293 0.002,-0.589 0,-0.883 C 9.388,0.755 9.206,0.552 8.966,0.548 8.727,0.546 8.535,0.748 8.534,1.025 c -0.006,0.585 -0.006,1.17 0,1.755 10e-4,0.276 0.19,0.478 0.432,0.476 0.24,-0.003 0.421,-0.204 0.423,-0.481 0.002,-0.286 0,-0.572 0,-0.86 z M 3.473,1.901 v 0 c 0,-0.294 0.003,-0.589 0,-0.884 C 3.47,0.751 3.284,0.552 3.048,0.548 c -0.23,0 -0.427,0.191 -0.43,0.451 -0.007,0.604 -0.004,1.206 0,1.808 C 2.62,2.994 2.711,3.142 2.886,3.222 3.159,3.344 3.463,3.134 3.471,2.812 3.479,2.509 3.473,2.205 3.473,1.901 Z M 5.581,1.899 v 0 c 0,0.312 -0.005,0.623 0.003,0.937 C 5.589,3.063 5.772,3.245 5.986,3.254 6.2,3.267 6.388,3.101 6.424,2.873 6.431,2.826 6.435,2.778 6.435,2.731 c 0,-0.551 0,-1.102 0,-1.651 C 6.435,1.018 6.432,0.957 6.418,0.897 6.384,0.745 6.293,0.631 6.145,0.577 5.877,0.477 5.592,0.675 5.583,0.977 5.573,1.284 5.581,1.593 5.581,1.899 Z"
   id="path2"
   inkscape:connector-curvature="0"
   style="fill:#7c7c7c" />
			<path
   d="m 8.485,5.36 c 0.552,0 1.102,0 1.664,0 0,0.494 0,0.986 0,1.484 -0.555,0 -1.104,0 -1.664,0 0,-0.493 0,-0.985 0,-1.484 z"
   id="path4"
   inkscape:connector-curvature="0"
   style="clip-rule:evenodd;fill:#7c7c7c;fill-rule:evenodd" />
			<path
   d="m 10.149,8.84 c -0.564,0 -1.114,0 -1.667,0 0,-0.497 0,-0.986 0,-1.483 0.556,0 1.104,0 1.667,0 0,0.493 0,0.984 0,1.483 z"
   id="path6"
   inkscape:connector-curvature="0"
   style="clip-rule:evenodd;fill:#7c7c7c;fill-rule:evenodd" />
			<path
   d="m 1.749,7.355 c 0.555,0 1.105,0 1.663,0 0,0.494 0,0.981 0,1.48 -0.549,0 -1.101,0 -1.663,0 0,-0.49 0,-0.982 0,-1.48 z"
   id="path8"
   inkscape:connector-curvature="0"
   style="clip-rule:evenodd;fill:#7c7c7c;fill-rule:evenodd" />
			<path
   d="m 3.416,6.849 c -0.561,0 -1.106,0 -1.664,0 0,-0.494 0,-0.985 0,-1.486 0.553,0 1.104,0 1.664,0 0,0.493 0,0.984 0,1.486 z"
   id="path10"
   inkscape:connector-curvature="0"
   style="clip-rule:evenodd;fill:#7c7c7c;fill-rule:evenodd" />
			<path
   d="m 7.905,7.36 c 0,0.494 0,0.984 0,1.479 -0.558,0 -1.107,0 -1.664,0 0,-0.495 0,-0.982 0,-1.479 0.548,0 1.098,0 1.664,0 z"
   id="path12"
   inkscape:connector-curvature="0"
   style="clip-rule:evenodd;fill:#7c7c7c;fill-rule:evenodd" />
			<path
   d="m 3.993,7.354 c 0.561,0 1.109,0 1.662,0 0,0.496 0,0.983 0,1.482 -0.55,0 -1.102,0 -1.662,0 0,-0.491 0,-0.982 0,-1.482 z"
   id="path14"
   inkscape:connector-curvature="0"
   style="clip-rule:evenodd;fill:#7c7c7c;fill-rule:evenodd" />
			<path
   d="m 6.238,6.845 c 0,-0.499 0,-0.988 0,-1.483 0.555,0 1.103,0 1.662,0 0,0.495 0,0.985 0,1.483 -0.552,0 -1.1,0 -1.662,0 z"
   id="path16"
   inkscape:connector-curvature="0"
   style="clip-rule:evenodd;fill:#7c7c7c;fill-rule:evenodd" />
			<path
   d="m 3.993,6.844 c 0,-0.495 0,-0.984 0,-1.481 0.557,0 1.109,0 1.667,0 0,0.494 0,0.984 0,1.481 -0.554,0 -1.102,0 -1.667,0 z"
   id="path18"
   inkscape:connector-curvature="0"
   style="clip-rule:evenodd;fill:#7c7c7c;fill-rule:evenodd" />
			<path
   d="m 3.413,10.838 c -0.558,0 -1.108,0 -1.665,0 0,-0.492 0,-0.979 0,-1.476 0.553,0 1.105,0 1.665,0 0,0.486 0,0.973 0,1.476 z"
   id="path20"
   inkscape:connector-curvature="0"
   style="clip-rule:evenodd;fill:#7c7c7c;fill-rule:evenodd" />
			<path
   d="m 8.484,10.837 c 0,-0.497 0,-0.985 0,-1.48 0.555,0 1.104,0 1.666,0 0,0.493 0,0.983 0,1.48 -0.556,0 -1.105,0 -1.666,0 z"
   id="path22"
   inkscape:connector-curvature="0"
   style="clip-rule:evenodd;fill:#7c7c7c;fill-rule:evenodd" />
			<path
   d="m 3.995,10.834 c 0,-0.494 0,-0.981 0,-1.475 0.556,0 1.104,0 1.662,0 0,0.49 0,0.978 0,1.475 -0.553,0 -1.106,0 -1.662,0 z"
   id="path24"
   inkscape:connector-curvature="0"
   style="clip-rule:evenodd;fill:#7c7c7c;fill-rule:evenodd" />
			<path
   d="m 6.237,10.835 c 0,-0.495 0,-0.979 0,-1.473 0.555,0 1.107,0 1.667,0 0,0.49 0,0.978 0,1.473 -0.556,0 -1.104,0 -1.667,0 z"
   id="path26"
   inkscape:connector-curvature="0"
   style="clip-rule:evenodd;fill:#7c7c7c;fill-rule:evenodd" />
		</g>
	</g>
</g>
</svg>