<?xml version="1.0" encoding="UTF-8" standalone="no"?>
<!-- Generator: Adobe Illustrator 16.0.0, SVG Export Plug-In . SVG Version: 6.00 Build 0)  -->

<svg
   xmlns:dc="http://purl.org/dc/elements/1.1/"
   xmlns:cc="http://creativecommons.org/ns#"
   xmlns:rdf="http://www.w3.org/1999/02/22-rdf-syntax-ns#"
   xmlns:svg="http://www.w3.org/2000/svg"
   xmlns="http://www.w3.org/2000/svg"
   xmlns:sodipodi="http://sodipodi.sourceforge.net/DTD/sodipodi-0.dtd"
   xmlns:inkscape="http://www.inkscape.org/namespaces/inkscape"
   version="1.1"
   id="Capa_1"
   x="0px"
   y="0px"
   width="25"
   height="25"
   viewBox="0 0 25 24.999999"
   enable-background="new 0 0 26.631 27.301"
   xml:space="preserve"
   sodipodi:docname="matches.svg"
   inkscape:version="0.92.4 (5da689c313, 2019-01-14)"><metadata
   id="metadata9"><rdf:RDF><cc:Work
       rdf:about=""><dc:format>image/svg+xml</dc:format><dc:type
         rdf:resource="http://purl.org/dc/dcmitype/StillImage" /><dc:title></dc:title></cc:Work></rdf:RDF></metadata><defs
   id="defs7" /><sodipodi:namedview
   pagecolor="#ffffff"
   bordercolor="#666666"
   borderopacity="1"
   objecttolerance="10"
   gridtolerance="10"
   guidetolerance="10"
   inkscape:pageopacity="0"
   inkscape:pageshadow="2"
   inkscape:window-width="1366"
   inkscape:window-height="705"
   id="namedview5"
   showgrid="false"
   inkscape:zoom="8.6443718"
   inkscape:cx="13.3155"
   inkscape:cy="13.6505"
   inkscape:window-x="-8"
   inkscape:window-y="-8"
   inkscape:window-maximized="1"
   inkscape:current-layer="Capa_1" />
<path
   d="m 7.5849068,0.67382146 c 1.192,0 13.2720002,0 13.2720002,0 0,0 1.27,0.022 0.634,1.11300004 -0.634,1.09 -3.89,6.688 -3.89,6.688 0,0 3.394,0 5.531,0 2.141,0 0.281,1.4180001 0.281,1.4180001 0,0 -13.4730002,11.0059994 -16.5150002,13.4269994 -3.042,2.419 -1.653,-0.228 -1.653,-0.228 l 4.317,-8.527 c 0,0 -6.6,0.016 -7.729,0.131 -1.12900004,0.116 -0.658,-1.021 -0.658,-1.021 l 4.901,-12.0409995 c 10e-4,10e-4 0.317,-0.96000004 1.509,-0.96000004 z"
   id="path2"
   inkscape:connector-curvature="0"
   style="fill:#878787" />
</svg>