<?xml version="1.0" encoding="UTF-8" standalone="no"?>
<!-- Generator: Adobe Illustrator 16.0.0, SVG Export Plug-In . SVG Version: 6.00 Build 0)  -->

<svg
   xmlns:dc="http://purl.org/dc/elements/1.1/"
   xmlns:cc="http://creativecommons.org/ns#"
   xmlns:rdf="http://www.w3.org/1999/02/22-rdf-syntax-ns#"
   xmlns:svg="http://www.w3.org/2000/svg"
   xmlns="http://www.w3.org/2000/svg"
   xmlns:sodipodi="http://sodipodi.sourceforge.net/DTD/sodipodi-0.dtd"
   xmlns:inkscape="http://www.inkscape.org/namespaces/inkscape"
   version="1.1"
   id="Capa_1"
   x="0px"
   y="0px"
   width="25"
   height="25"
   viewBox="0 0 25 25"
   enable-background="new 0 0 29.271 27.84"
   xml:space="preserve"
   sodipodi:docname="star.svg"
   inkscape:version="0.92.4 (5da689c313, 2019-01-14)"><metadata
   id="metadata9"><rdf:RDF><cc:Work
       rdf:about=""><dc:format>image/svg+xml</dc:format><dc:type
         rdf:resource="http://purl.org/dc/dcmitype/StillImage" /><dc:title></dc:title></cc:Work></rdf:RDF></metadata><defs
   id="defs7" /><sodipodi:namedview
   pagecolor="#ffffff"
   bordercolor="#666666"
   borderopacity="1"
   objecttolerance="10"
   gridtolerance="10"
   guidetolerance="10"
   inkscape:pageopacity="0"
   inkscape:pageshadow="2"
   inkscape:window-width="1366"
   inkscape:window-height="705"
   id="namedview5"
   showgrid="false"
   inkscape:zoom="16.954023"
   inkscape:cx="11.574054"
   inkscape:cy="16.215551"
   inkscape:window-x="-8"
   inkscape:window-y="-8"
   inkscape:window-maximized="1"
   inkscape:current-layer="Capa_1" />
<path
   d="m 13.447268,1.5828556 c 0.906067,1.8353419 3.216312,6.5138573 3.216312,6.5138573 0,0 5.021303,0.7400282 7.092312,1.0310412 2.071008,0.291012 0.527571,1.6514509 0.527571,1.6514509 l -5.126638,4.998094 c 0,0 0.765916,4.683871 1.216717,7.08517 0.450802,2.401299 -1.47113,0.961412 -1.47113,0.961412 l -6.279084,-3.300223 c 0,0 -3.8215449,2.008521 -6.1326839,3.225238 -2.311138,1.216718 -1.645202,-0.698072 -1.645202,-0.698072 l 1.246176,-7.272632 -5.17930705,-5.048978 c 0,0 -1.517549,-1.2533169 0.25084205,-1.5523629 2.038872,-0.345466 7.424387,-1.0783529 7.424387,-1.0783529 L 11.80653,1.5721435 c 8.92e-4,-8.927e-4 0.734672,-1.82373735 1.640738,0.010712 z"
   id="path2"
   inkscape:connector-curvature="0"
   style="fill:#878787;stroke-width:0.89267612" />
</svg>