<?xml version="1.0" encoding="utf-8"?>
<!-- Generator: Adobe Illustrator 16.0.0, SVG Export Plug-In . SVG Version: 6.00 Build 0)  -->
<!DOCTYPE svg PUBLIC "-//W3C//DTD SVG 1.1//EN" "http://www.w3.org/Graphics/SVG/1.1/DTD/svg11.dtd">
<svg version="1.1" id="Capa_1" xmlns="http://www.w3.org/2000/svg" xmlns:xlink="http://www.w3.org/1999/xlink" x="0px" y="0px"
	 width="297.597px" height="304.09px" viewBox="0 0 297.597 304.09" enable-background="new 0 0 297.597 304.09"
	 xml:space="preserve">
<path fill="#555555" d="M217.805,165.257c1.344-2.048,5.01-3.247,7.725-3.71c37.894-6.468,64.312-36.759,65.163-75.382
	c0.295-13.327,0.185-26.666,0.051-39.998c-0.108-10.844-4.655-15.401-15.386-15.6c-8.432-0.155-16.858-0.106-25.289-0.188
	c-0.485-0.005-0.965-0.502-2.232-1.025C248.21,21.472,247.877,13,238.879,9C179.537,9,120.196,9,60.854,9
	c-9.102,4-9.333,12.419-8.951,21.416c-9.676,0-18.574-0.042-27.471,0.092c-10.812,0.162-15.523,4.771-15.46,15.467
	C9.068,62.267,8.399,78.682,10,94.843c3.433,34.654,29.493,61.118,63.671,66.736c3.104,0.51,6.958,2.292,8.633,4.737
	c13.417,19.602,30.612,33.573,55.25,38.208c0,5.27,0.459,10.433-0.208,15.441c-0.303,2.255-2.431,5.396-4.45,6.114
	c-17.566,6.253-29.13,18.161-35.771,35.451c-0.811,2.109-4.439,4.367-6.824,4.435c-0.507,0.015-1.015,0.022-1.523,0.035H72.594
	c-2.761,0-4.594,2.238-4.594,5v21c0,2.762,1.833,5,4.594,5h152.492c2.762,0,4.914-2.238,4.914-5v-21c0-2.762-2.152-5-4.914-5
	h-17.947c-2.762-0.655-4.641-2.438-5.91-6.049C194.701,241.361,181,230.313,162,224.679c0-6.705,0-13.145,0-20.163
	C187,199.826,204.418,185.645,217.805,165.257z M248.405,56c4.73,0,10.539,0,16.371,0c4.417,34,1.394,64.038-29.94,76.828
	C239.268,107.74,243.767,82,248.405,56z M35.005,56c6.134,0,11.504,0,16.284,0c4.573,26,9.067,51.807,13.498,77.112
	C33.418,120.298,30.559,90,35.005,56z M177.562,266h-55.547c4.888-10.476,16.407-18.22,28.312-18.014
	C162.018,248.189,172.782,255.703,177.562,266z M108.126,158.819c-8.567-11.803-14.747-26.107-19.45-40.029
	C79.505,91.651,77.126,63,77.067,34c48.587,0,96.562,0,146.016,0c-0.753,12-1.149,23.416-2.303,34.876
	c-2.616,26.01-7.226,51.696-19.587,75.14c-3.267,6.196-7.123,12.316-11.674,17.617C166.8,188.097,128.841,187.354,108.126,158.819z"
	/>
</svg>
