<?xml version="1.0" encoding="UTF-8" standalone="no"?>
<!-- Generator: Adobe Illustrator 16.0.0, SVG Export Plug-In . SVG Version: 6.00 Build 0)  -->

<svg
   xmlns:dc="http://purl.org/dc/elements/1.1/"
   xmlns:cc="http://creativecommons.org/ns#"
   xmlns:rdf="http://www.w3.org/1999/02/22-rdf-syntax-ns#"
   xmlns:svg="http://www.w3.org/2000/svg"
   xmlns="http://www.w3.org/2000/svg"
   xmlns:sodipodi="http://sodipodi.sourceforge.net/DTD/sodipodi-0.dtd"
   xmlns:inkscape="http://www.inkscape.org/namespaces/inkscape"
   version="1.1"
   id="Capa_1"
   x="0px"
   y="0px"
   width="15"
   height="22"
   viewBox="0 0 15 22.000001"
   enable-background="new 0 0 15.186 22.078"
   xml:space="preserve"
   sodipodi:docname="user.svg"
   inkscape:version="0.92.4 (5da689c313, 2019-01-14)"><metadata
   id="metadata16"><rdf:RDF><cc:Work
       rdf:about=""><dc:format>image/svg+xml</dc:format><dc:type
         rdf:resource="http://purl.org/dc/dcmitype/StillImage" /><dc:title></dc:title></cc:Work></rdf:RDF></metadata><defs
   id="defs14" /><sodipodi:namedview
   pagecolor="#ffffff"
   bordercolor="#666666"
   borderopacity="1"
   objecttolerance="10"
   gridtolerance="10"
   guidetolerance="10"
   inkscape:pageopacity="0"
   inkscape:pageshadow="2"
   inkscape:window-width="1366"
   inkscape:window-height="705"
   id="namedview12"
   showgrid="false"
   inkscape:zoom="30.234117"
   inkscape:cx="9.5209326"
   inkscape:cy="7.2008687"
   inkscape:window-x="-8"
   inkscape:window-y="-8"
   inkscape:window-maximized="1"
   inkscape:current-layer="Capa_1" />
<g
   id="RU2cyr.tif_16_"
   transform="matrix(0.96919625,0,0,0.96919625,0.15970672,0.38189905)"
   style="fill:#00aee7;fill-opacity:1">
	<g
   id="g8"
   style="fill:#00aee7;fill-opacity:1">
		<g
   id="g6"
   style="fill:#00aee7;fill-opacity:1">
			<path
   d="m 7.587,0 c 3.346,-0.006 6.074,2.717 6.08,6.061 0.004,3.346 -2.721,6.074 -6.062,6.078 C 4.257,12.141 1.529,9.422 1.527,6.077 1.522,2.732 4.243,0.004 7.587,0 Z"
   id="path2"
   inkscape:connector-curvature="0"
   style="clip-rule:evenodd;fill:#00aee7;fill-rule:evenodd;fill-opacity:1" />
			<path
   d="m 11.3,12.682 c 0.752,0.605 1.549,1.199 2.292,1.861 1.169,1.042 1.469,2.463 1.574,3.944 0.106,1.487 -0.202,2.017 -1.582,2.597 -1.505,0.633 -3.103,0.844 -4.72,0.947 C 6.62,22.174 4.403,22.003 2.254,21.314 1.677,21.128 1.131,20.814 0.615,20.49 0.178,20.216 -0.039,19.764 0.006,19.226 c 0.052,-0.645 0.089,-1.293 0.177,-1.934 0.17,-1.208 0.733,-2.215 1.672,-2.995 0.609,-0.505 1.244,-0.976 1.881,-1.443 0.097,-0.071 0.305,-0.097 0.405,-0.04 2.386,1.305 4.747,1.217 7.159,-0.132 z"
   id="path4"
   inkscape:connector-curvature="0"
   style="clip-rule:evenodd;fill:#00aee7;fill-rule:evenodd;fill-opacity:1" />
		</g>
	</g>
</g>
</svg>